<svg id="Livello_1" data-name="Livello 1" xmlns="http://www.w3.org/2000/svg" viewBox="0 0 283.4646 290.7442"><defs><style>.cls-1,.cls-3,.cls-7,.cls-8{fill:none;}.cls-1{stroke:#ccc;}.cls-1,.cls-4,.cls-7,.cls-8{stroke-miterlimit:10;}.cls-2{font-size:18px;}.cls-2,.cls-5,.cls-6{font-family:CMU Serif;}.cls-4,.cls-8{stroke:#000;}.cls-5,.cls-6{font-size:24px;}.cls-5{font-style:italic;}.cls-7{stroke:#ec1e24;stroke-width:2px;}</style></defs><title>dendrogram-2</title><line class="cls-1" x1="278.4276" y1="46.7345" x2="20.1732" y2="46.7345"/><line class="cls-1" x1="278.4276" y1="89.5451" x2="20.1732" y2="89.5451"/><line class="cls-1" x1="278.4276" y1="132.3557" x2="20.1732" y2="132.3557"/><line class="cls-1" x1="278.4276" y1="175.1663" x2="20.1732" y2="175.1663"/><line class="cls-1" x1="278.4276" y1="217.9768" x2="20.1732" y2="217.9768"/><text class="cls-2" transform="translate(7.2502 222.3731)">1</text><text class="cls-2" transform="translate(7.2502 179.5625)">2</text><text class="cls-2" transform="translate(7.2502 136.7518)">3</text><text class="cls-2" transform="translate(7.2503 93.9412)">4</text><text class="cls-2" transform="translate(7.2498 51.1308)">5</text><rect class="cls-3" width="283.4646" height="283.4646"/><polygon class="cls-4" points="20.173 3.924 24.425 12.428 15.921 12.428 20.173 3.924"/><text class="cls-5" transform="translate(1.1256 26.3446)">h</text><text class="cls-5" transform="translate(33.6075 282.248)">A</text><text class="cls-5" transform="translate(85.4443 282.2483)">B</text><text class="cls-5" transform="translate(136.2394 282.248)">C</text><text class="cls-5" transform="translate(188.4045 282.2483)">D</text><text class="cls-5" transform="translate(240.5694 282.2483)">E</text><text class="cls-6" transform="translate(72.5419 98.6841)">3.64</text><text class="cls-6" transform="translate(233.5932 102.4655)">3.61</text><polyline class="cls-7" points="94.252 260.966 94.252 102.465 145.984 102.465 145.984 260.966"/><polyline class="cls-7" points="249.449 260.966 249.449 105.715 197.717 105.715 197.717 260.966"/><polyline class="cls-7" points="120.118 102.465 120.118 89.545 223.583 89.545 223.583 105.715"/><text class="cls-6" transform="translate(198.4573 87.4567)">4</text><polyline class="cls-7" points="171.85 89.545 171.85 66.965 42.52 66.965 42.52 260.966"/><text class="cls-6" transform="translate(91.9149 62.4151)">4.47</text><polyline class="cls-8" points="276.378 260.787 20.173 260.787 20.173 6.828"/></svg>