<svg id="Livello_1" data-name="Livello 1" xmlns="http://www.w3.org/2000/svg" viewBox="0 0 283.4646 290.7445"><defs><style>.cls-1,.cls-3,.cls-7,.cls-8{fill:none;}.cls-1{stroke:#ccc;}.cls-1,.cls-4,.cls-7,.cls-8{stroke-miterlimit:10;}.cls-2{font-size:18px;}.cls-2,.cls-5,.cls-6{font-family:CMU Serif;}.cls-4,.cls-8{stroke:#000;}.cls-5,.cls-6{font-size:24px;}.cls-5{font-style:italic;}.cls-7{stroke:#ec1e24;stroke-width:2px;}</style></defs><title>dendrogram-3</title><line class="cls-1" x1="278.4276" y1="46.7345" x2="20.1732" y2="46.7345"/><line class="cls-1" x1="278.4276" y1="89.5451" x2="20.1732" y2="89.5451"/><line class="cls-1" x1="278.4276" y1="132.3557" x2="20.1732" y2="132.3557"/><line class="cls-1" x1="278.4276" y1="175.1663" x2="20.1732" y2="175.1663"/><line class="cls-1" x1="278.4276" y1="217.9768" x2="20.1732" y2="217.9768"/><text class="cls-2" transform="translate(7.2502 222.3731)">1</text><text class="cls-2" transform="translate(7.2502 179.5625)">2</text><text class="cls-2" transform="translate(7.2502 136.7518)">3</text><text class="cls-2" transform="translate(7.2504 93.9412)">4</text><text class="cls-2" transform="translate(7.2498 51.1308)">5</text><rect class="cls-3" width="283.4646" height="283.4646"/><polygon class="cls-4" points="20.173 3.924 24.425 12.428 15.921 12.428 20.173 3.924"/><text class="cls-5" transform="translate(1.1256 26.3446)">h</text><text class="cls-5" transform="translate(33.6076 282.248)">A</text><text class="cls-5" transform="translate(75.1456 282.2478)">F</text><text class="cls-5" transform="translate(115.8563 282.248)">D</text><text class="cls-5" transform="translate(157.9922 282.2478)">B</text><text class="cls-5" transform="translate(240.1236 282.2478)">C</text><text class="cls-6" transform="translate(69.019 190.5679)">1.58</text><text class="cls-6" transform="translate(126.9417 105.0279)">3.61</text><text class="cls-5" transform="translate(198.7635 282.248)">E</text><polyline class="cls-7" points="42.52 260.966 42.52 192.965 83.906 192.965 83.906 260.966"/><polyline class="cls-7" points="63.213 192.965 63.213 136.752 125.291 136.752 125.291 260.787"/><text class="cls-6" transform="translate(109.1303 135.0427)">2.91</text><polyline class="cls-7" points="166.677 260.966 166.677 109.799 94.252 109.799 94.252 136.752"/><text class="cls-6" transform="translate(66.0623 107.5483)">3.53</text><polyline class="cls-7" points="208.063 260.966 208.063 107.549 130.465 107.549 130.465 109.799"/><polyline class="cls-7" points="249.449 260.966 249.449 105.028 169.264 105.028 169.264 107.549"/><text class="cls-6" transform="translate(229.4416 102.7779)">3.64</text><polyline class="cls-8" points="276.378 260.787 20.173 260.787 20.173 6.828"/></svg>