<svg id="Livello_1" data-name="Livello 1" xmlns="http://www.w3.org/2000/svg" viewBox="0 0 283.4646 291.874"><defs><style>.cls-1,.cls-2,.cls-4,.cls-7{fill:none;}.cls-1{stroke:#ccc;}.cls-1,.cls-2,.cls-7{stroke-miterlimit:10;}.cls-2{stroke:#000;}.cls-3{font-size:18px;}.cls-3,.cls-6,.cls-9{font-family:CMU Serif;}.cls-5{fill:#d10000;}.cls-6,.cls-9{font-size:24px;}.cls-6{font-style:italic;}.cls-7{stroke:red;}.cls-8{fill:#3853a3;}</style></defs><title>graph-3</title><line class="cls-1" x1="274.9874" y1="115.9519" x2="20.1732" y2="115.9519"/><polygon points="20.173 6.744 24.198 15.248 16.148 15.248 20.173 6.744"/><polygon points="277.819 262.263 269.316 266.515 269.316 258.011 277.819 262.263"/><line class="cls-1" x1="263.7521" y1="7.8036" x2="263.7521" y2="262.6016"/><line class="cls-1" x1="44.5311" y1="7.4835" x2="44.5311" y2="262.2816"/><line class="cls-1" x1="68.889" y1="7.4835" x2="68.889" y2="262.2816"/><line class="cls-1" x1="141.9627" y1="7.4835" x2="141.9627" y2="262.2816"/><line class="cls-1" x1="166.3206" y1="7.4835" x2="166.3206" y2="262.2816"/><line class="cls-1" x1="215.0364" y1="7.4835" x2="215.0364" y2="262.2816"/><line class="cls-1" x1="274.9873" y1="18.4109" x2="20.1732" y2="18.4109"/><line class="cls-1" x1="274.9873" y1="42.7961" x2="20.1732" y2="42.7961"/><line class="cls-1" x1="274.9873" y1="91.5666" x2="20.1732" y2="91.5666"/><line class="cls-1" x1="274.9873" y1="189.1076" x2="20.1732" y2="189.1076"/><line class="cls-1" x1="274.9873" y1="213.4928" x2="20.1732" y2="213.4928"/><line class="cls-1" x1="275.2913" y1="237.878" x2="20.1732" y2="237.878"/><line class="cls-1" x1="117.6048" y1="7.4835" x2="117.6048" y2="262.2816"/><line class="cls-1" x1="275.2913" y1="164.7223" x2="20.1732" y2="164.7223"/><line class="cls-2" x1="20.1732" y1="8.304" x2="20.1732" y2="274.7607"/><line class="cls-1" x1="190.6785" y1="7.4835" x2="190.6785" y2="262.2816"/><line class="cls-1" x1="93.2469" y1="7.4835" x2="93.2469" y2="262.2816"/><line class="cls-1" x1="274.9873" y1="140.3371" x2="20.1732" y2="140.3371"/><text class="cls-3" transform="translate(40.0313 280.3855)">1</text><text class="cls-3" transform="translate(64.3892 280.3855)">2</text><text class="cls-3" transform="translate(88.7471 280.3858)">3</text><text class="cls-3" transform="translate(113.1048 280.3856)">4</text><text class="cls-3" transform="translate(137.4631 280.3856)">5</text><text class="cls-3" transform="translate(161.8208 280.3858)">6</text><text class="cls-3" transform="translate(186.1787 280.3854)">7</text><text class="cls-3" transform="translate(210.537 280.3856)">8</text><text class="cls-3" transform="translate(7.0311 243.7396)">1</text><text class="cls-3" transform="translate(7.0309 219.3546)">2</text><text class="cls-3" transform="translate(7.0311 194.9693)">3</text><text class="cls-3" transform="translate(7.0309 170.5839)">4</text><text class="cls-3" transform="translate(7.0308 146.1985)">5</text><text class="cls-3" transform="translate(7.031 121.8136)">6</text><text class="cls-3" transform="translate(7.0309 97.428)">7</text><text class="cls-3" transform="translate(7.031 73.0429)">8</text><line class="cls-1" x1="239.3942" y1="7.4653" x2="239.3942" y2="262.2633"/><text class="cls-3" transform="translate(234.8945 280.3853)">9</text><line class="cls-2" x1="276.378" y1="262.2633" x2="7.0866" y2="262.2633"/><line class="cls-1" x1="274.9873" y1="67.1814" x2="20.1732" y2="67.1814"/><text class="cls-3" transform="translate(7.031 47.1926)">9</text><rect class="cls-4" y="1.4759" width="283.4646" height="283.4646"/><circle class="cls-5" cx="93.2471" cy="140.4114" r="7.0866"/><text class="cls-6" transform="translate(84.4873 173.3632)">F</text><path class="cls-7" d="M40.08,54.8745H149.6063A11.6667,11.6667,0,0,1,161.273,66.5412V194.4631A11.6667,11.6667,0,0,1,149.6063,206.13H40.4085a11.6667,11.6667,0,0,1-11.6667-11.6667V66.2131A11.3386,11.3386,0,0,1,40.08,54.8745Z"/><circle class="cls-8" cx="142.1003" cy="67.3609" r="7.0866"/><text class="cls-6" transform="translate(133.5965 100.3127)">B</text><circle class="cls-8" cx="228.1543" cy="91.8923" r="7.0866"/><text class="cls-6" transform="translate(218.4096 124.8441)">C</text><path class="cls-7" d="M43.32,101.9873H144.19a11.6667,11.6667,0,0,1,11.6667,11.6667V190.46A11.6667,11.6667,0,0,1,144.19,202.1265H43.648A11.6667,11.6667,0,0,1,31.9813,190.46v-77.134A11.3386,11.3386,0,0,1,43.32,101.9873Z"/><circle class="cls-8" cx="141.9299" cy="165.1219" r="7.0866"/><text class="cls-6" transform="translate(132.6181 198.0738)">D</text><circle class="cls-8" cx="215.037" cy="213.2164" r="7.0866"/><text class="cls-6" transform="translate(206.157 246.1682)">E</text><circle class="cls-8" cx="44.5309" cy="115.953" r="7.0866"/><text class="cls-6" transform="translate(35.6187 148.9048)">A</text><path class="cls-7" d="M317.4447,702.8333H131.7717a8.875,8.875,0,0,1-8.875-8.875V514.4031a11.3386,11.3386,0,0,1,11.3386-11.3386H268.464a11.3386,11.3386,0,0,1,10.5093,7.0821L325.49,624.999a11.3386,11.3386,0,0,1,.8293,4.2565v64.7029A8.875,8.875,0,0,1,317.4447,702.8333Z" transform="translate(-98.1654 -451.9033)"/><text class="cls-6" transform="translate(0.2016 20.1954)">x</text><text class="cls-9" transform="translate(11.311 25.1876) scale(0.583)">2</text><text class="cls-6" transform="translate(262.6791 278.3856)">x</text><text class="cls-9" transform="translate(273.7884 283.3778) scale(0.583)">1</text><path class="cls-7" d="M33.1115,45.2079H231.94A13.3333,13.3333,0,0,1,245.273,58.5412V244.2124A13.3333,13.3333,0,0,1,231.94,257.5458H35.1063A13.3333,13.3333,0,0,1,21.773,244.2124V56.5464A11.3386,11.3386,0,0,1,33.1115,45.2079Z"/><path class="cls-7" d="M46.9449,105.3194H96.996a7.11,7.11,0,0,1,7.11,7.11v57.1679a7.11,7.11,0,0,1-7.11,7.11H42.7166a7.11,7.11,0,0,1-7.11-7.11v-52.94A11.3386,11.3386,0,0,1,46.9449,105.3194Z"/></svg>