<svg id="Livello_1" data-name="Livello 1" xmlns="http://www.w3.org/2000/svg" viewBox="0 0 283.4646 291.874"><defs><style>.cls-1,.cls-2,.cls-4,.cls-7{fill:none;}.cls-1{stroke:#ccc;}.cls-1,.cls-2,.cls-7{stroke-miterlimit:10;}.cls-2{stroke:#000;}.cls-3{font-size:18px;}.cls-3,.cls-6,.cls-9{font-family:CMU Serif;}.cls-5{fill:#d10000;}.cls-6,.cls-9{font-size:24px;}.cls-6{font-style:italic;}.cls-7{stroke:red;}.cls-8{fill:#3853a3;}</style></defs><title>graph-2</title><line class="cls-1" x1="274.9874" y1="115.9521" x2="20.1732" y2="115.9521"/><polygon points="20.173 6.744 24.198 15.248 16.148 15.248 20.173 6.744"/><polygon points="277.819 262.264 269.316 266.515 269.316 258.012 277.819 262.264"/><line class="cls-1" x1="263.7521" y1="7.8039" x2="263.7521" y2="262.6019"/><line class="cls-1" x1="44.5311" y1="7.4838" x2="44.5311" y2="262.2818"/><line class="cls-1" x1="68.889" y1="7.4838" x2="68.889" y2="262.2818"/><line class="cls-1" x1="141.9627" y1="7.4838" x2="141.9627" y2="262.2818"/><line class="cls-1" x1="166.3206" y1="7.4838" x2="166.3206" y2="262.2818"/><line class="cls-1" x1="215.0364" y1="7.4838" x2="215.0364" y2="262.2818"/><line class="cls-1" x1="274.9873" y1="18.4112" x2="20.1732" y2="18.4112"/><line class="cls-1" x1="274.9873" y1="42.7964" x2="20.1732" y2="42.7964"/><line class="cls-1" x1="274.9873" y1="91.5669" x2="20.1732" y2="91.5669"/><line class="cls-1" x1="274.9873" y1="189.1078" x2="20.1732" y2="189.1078"/><line class="cls-1" x1="274.9873" y1="213.4931" x2="20.1732" y2="213.4931"/><line class="cls-1" x1="275.2913" y1="237.8783" x2="20.1732" y2="237.8783"/><line class="cls-1" x1="117.6048" y1="7.4838" x2="117.6048" y2="262.2818"/><line class="cls-1" x1="275.2913" y1="164.7226" x2="20.1732" y2="164.7226"/><line class="cls-2" x1="20.1732" y1="8.3042" x2="20.1732" y2="274.7609"/><line class="cls-1" x1="190.6785" y1="7.4838" x2="190.6785" y2="262.2818"/><line class="cls-1" x1="93.2469" y1="7.4838" x2="93.2469" y2="262.2818"/><line class="cls-1" x1="274.9873" y1="140.3373" x2="20.1732" y2="140.3373"/><text class="cls-3" transform="translate(40.0313 280.3857)">1</text><text class="cls-3" transform="translate(64.3892 280.3857)">2</text><text class="cls-3" transform="translate(88.7471 280.3861)">3</text><text class="cls-3" transform="translate(113.1048 280.3858)">4</text><text class="cls-3" transform="translate(137.4631 280.3858)">5</text><text class="cls-3" transform="translate(161.8208 280.386)">6</text><text class="cls-3" transform="translate(186.1787 280.3857)">7</text><text class="cls-3" transform="translate(210.537 280.3858)">8</text><text class="cls-3" transform="translate(7.0311 243.7398)">1</text><text class="cls-3" transform="translate(7.0309 219.3548)">2</text><text class="cls-3" transform="translate(7.0311 194.9696)">3</text><text class="cls-3" transform="translate(7.0309 170.5841)">4</text><text class="cls-3" transform="translate(7.0308 146.1987)">5</text><text class="cls-3" transform="translate(7.031 121.8138)">6</text><text class="cls-3" transform="translate(7.0309 97.4282)">7</text><text class="cls-3" transform="translate(7.031 73.0432)">8</text><line class="cls-1" x1="239.3942" y1="7.4655" x2="239.3942" y2="262.2635"/><text class="cls-3" transform="translate(234.8945 280.3855)">9</text><line class="cls-2" x1="276.378" y1="262.2635" x2="7.0866" y2="262.2635"/><line class="cls-1" x1="274.9873" y1="67.1816" x2="20.1732" y2="67.1816"/><text class="cls-3" transform="translate(7.031 47.1928)">9</text><rect class="cls-4" y="1.4761" width="283.4646" height="283.4646"/><circle class="cls-5" cx="93.2471" cy="140.4116" r="7.0866"/><text class="cls-6" transform="translate(84.4873 173.3635)">F</text><path class="cls-7" d="M141.0863,56.8442h88.9948a11.6667,11.6667,0,0,1,11.6667,11.6667v49.0833a11.6667,11.6667,0,0,1-11.6667,11.6667H141.4144a11.6667,11.6667,0,0,1-11.6667-11.6667V68.1828A11.3386,11.3386,0,0,1,141.0863,56.8442Z"/><circle class="cls-8" cx="142.1003" cy="67.3611" r="7.0866"/><text class="cls-6" transform="translate(133.5965 100.3129)">B</text><circle class="cls-8" cx="228.1543" cy="91.8925" r="7.0866"/><text class="cls-6" transform="translate(218.4096 124.8444)">C</text><path class="cls-7" d="M138.8975,151.2609h78.4114a11.6667,11.6667,0,0,1,11.6667,11.6667v75a11.6667,11.6667,0,0,1-11.6667,11.6667H139.2256a11.6667,11.6667,0,0,1-11.6667-11.6667V162.5995A11.3386,11.3386,0,0,1,138.8975,151.2609Z"/><circle class="cls-8" cx="141.9299" cy="165.1222" r="7.0866"/><text class="cls-6" transform="translate(132.6181 198.074)">D</text><circle class="cls-8" cx="215.037" cy="213.2166" r="7.0866"/><text class="cls-6" transform="translate(206.157 246.1684)">E</text><circle class="cls-8" cx="44.5309" cy="115.9532" r="7.0866"/><text class="cls-6" transform="translate(35.6187 148.9051)">A</text><path class="cls-7" d="M132.9659,48.3633H239.7523a8.875,8.875,0,0,1,8.875,8.875V246.3442a8.875,8.875,0,0,1-8.875,8.875h-109.25a8.875,8.875,0,0,1-8.875-8.875V59.7019A11.3386,11.3386,0,0,1,132.9659,48.3633Z"/><text class="cls-6" transform="translate(0.2016 20.1957)">x</text><text class="cls-9" transform="translate(11.311 25.1879) scale(0.583)">2</text><text class="cls-6" transform="translate(262.6791 278.3859)">x</text><text class="cls-9" transform="translate(273.7884 283.3781) scale(0.583)">1</text><path class="cls-7" d="M43.7992,40.5116H241.9606A13.3333,13.3333,0,0,1,255.294,53.8449v192.791a13.3333,13.3333,0,0,1-13.3333,13.3333H45.794a13.3333,13.3333,0,0,1-13.3333-13.3333V51.85A11.3386,11.3386,0,0,1,43.7992,40.5116Z"/></svg>