<svg id="Livello_1" data-name="Livello 1" xmlns="http://www.w3.org/2000/svg" viewBox="0 0 284.4646 378.2578"><defs><style>.cls-1,.cls-2,.cls-4,.cls-5,.cls-6,.cls-8,.cls-9{fill:none;stroke-miterlimit:10;}.cls-1{stroke:#ccc;}.cls-2{stroke:#000;}.cls-3{font-size:23px;}.cls-3,.cls-7{font-family:CMU Serif;}.cls-4{stroke:#5712ff;}.cls-5{stroke:#f14800;}.cls-6{stroke:#2708ff;}.cls-7{font-size:24px;font-style:italic;}.cls-8{stroke:#c83600;}.cls-8,.cls-9{stroke-width:2px;}.cls-9{stroke:#00de08;}.cls-10{fill:#925900;}.cls-11{fill:#d32800;}.cls-12{fill:#ff7500;}.cls-13{font-size:16px;}.cls-14{fill:#ffcf4b;}.cls-15{fill:#cacb00;}.cls-16{fill:#2ee100;}.cls-17{fill:#00b057;}.cls-18{fill:#2bc2ff;}.cls-19{fill:#2e00de;}.cls-20{fill:#f600cf;}.cls-21{fill:#8600cb;}</style></defs><title>speed-up-1</title><line class="cls-1" x1="267.3389" y1="6.7441" x2="12.5248" y2="6.7441"/><polygon points="20.673 6.744 24.698 15.248 16.648 15.248 20.673 6.744"/><polygon points="278.319 262.264 269.816 266.516 269.816 258.012 278.319 262.264"/><line class="cls-1" x1="246.139" y1="7.532" x2="246.139" y2="262.33"/><line class="cls-1" x1="50.889" y1="7.58" x2="50.889" y2="262.3781"/><line class="cls-1" x1="99.7015" y1="7.6761" x2="99.7015" y2="262.4741"/><line class="cls-1" x1="275.4873" y1="145.4464" x2="20.6732" y2="145.4464"/><line class="cls-1" x1="275.4873" y1="199.5274" x2="20.6732" y2="199.5274"/><line class="cls-1" x1="275.6393" y1="253.6084" x2="20.5212" y2="253.6084"/><line class="cls-1" x1="197.3265" y1="7.6281" x2="197.3265" y2="262.4261"/><line class="cls-1" x1="275.7913" y1="91.3654" x2="20.6732" y2="91.3654"/><line class="cls-2" x1="20.6732" y1="8.3044" x2="20.6732" y2="274.7611"/><line class="cls-1" x1="148.514" y1="7.484" x2="148.514" y2="262.282"/><line class="cls-1" x1="275.4873" y1="38.9438" x2="20.6732" y2="38.9438"/><text class="cls-3" transform="translate(45.1393 283.0526)">2</text><text class="cls-3" transform="translate(93.9513 283.0527)">4</text><text class="cls-3" transform="translate(142.7637 283.0526)">8</text><text class="cls-3" transform="translate(5.2805 259.2261)">1</text><text class="cls-3" transform="translate(5.2809 205.1445)">2</text><text class="cls-3" transform="translate(5.2811 151.064)">3</text><text class="cls-3" transform="translate(5.2809 96.9828)">4</text><text class="cls-3" transform="translate(5.2809 44.5613)">5</text><text class="cls-3" transform="translate(185.8263 283.0527)">12</text><line class="cls-2" x1="276.878" y1="262.2638" x2="7.5866" y2="262.2638"/><text class="cls-3" transform="translate(234.6391 283.0526)">16</text><line class="cls-4" x1="280.9783" y1="248.2003" x2="25.8602" y2="248.2003"/><line class="cls-4" x1="280.9783" y1="237.3841" x2="25.8602" y2="237.3841"/><line class="cls-5" x1="280.9783" y1="242.7922" x2="25.8602" y2="242.7922"/><line class="cls-5" x1="280.9783" y1="231.976" x2="25.8602" y2="231.976"/><line class="cls-4" x1="280.9783" y1="226.5679" x2="25.8602" y2="226.5679"/><line class="cls-4" x1="280.9783" y1="215.7517" x2="25.8602" y2="215.7517"/><line class="cls-5" x1="280.9783" y1="221.1598" x2="25.8602" y2="221.1598"/><line class="cls-5" x1="280.9783" y1="210.3436" x2="25.8602" y2="210.3436"/><line class="cls-4" x1="282.4783" y1="204.9355" x2="27.3602" y2="204.9355"/><line class="cls-6" x1="283.2283" y1="33.5772" x2="28.1102" y2="33.5772"/><line class="cls-6" x1="283.2283" y1="22.844" x2="28.1102" y2="22.844"/><line class="cls-6" x1="283.2283" y1="28.2106" x2="28.1102" y2="28.2106"/><line class="cls-6" x1="283.2283" y1="17.4774" x2="28.1102" y2="17.4774"/><line class="cls-6" x1="283.2283" y1="12.1108" x2="28.1102" y2="12.1108"/><line class="cls-4" x1="281.7283" y1="194.1193" x2="26.6102" y2="194.1193"/><line class="cls-4" x1="281.7283" y1="183.3031" x2="26.6102" y2="183.3031"/><line class="cls-5" x1="281.7283" y1="188.7112" x2="26.6102" y2="188.7112"/><line class="cls-5" x1="281.7283" y1="177.895" x2="26.6102" y2="177.895"/><line class="cls-4" x1="281.7283" y1="172.4869" x2="26.6102" y2="172.4869"/><line class="cls-4" x1="281.7283" y1="161.6707" x2="26.6102" y2="161.6707"/><line class="cls-5" x1="281.7283" y1="167.0788" x2="26.6102" y2="167.0788"/><line class="cls-5" x1="281.7283" y1="156.2626" x2="26.6102" y2="156.2626"/><line class="cls-4" x1="283.2283" y1="150.8545" x2="28.1102" y2="150.8545"/><line class="cls-4" x1="282.4783" y1="85.9573" x2="27.3602" y2="85.9573"/><line class="cls-4" x1="282.4783" y1="75.1411" x2="27.3602" y2="75.1411"/><line class="cls-5" x1="282.4783" y1="80.5492" x2="27.3602" y2="80.5492"/><line class="cls-5" x1="282.4783" y1="69.733" x2="27.3602" y2="69.733"/><line class="cls-4" x1="282.4783" y1="64.3249" x2="27.3602" y2="64.3249"/><line class="cls-4" x1="282.4783" y1="53.5916" x2="27.3602" y2="53.5916"/><line class="cls-5" x1="282.4783" y1="58.9582" x2="27.3602" y2="58.9582"/><line class="cls-5" x1="282.4783" y1="48.225" x2="27.3602" y2="48.225"/><line class="cls-4" x1="283.9783" y1="42.8584" x2="28.8602" y2="42.8584"/><line class="cls-4" x1="277.2283" y1="140.0383" x2="22.1102" y2="140.0383"/><line class="cls-4" x1="280.9783" y1="129.2221" x2="25.8602" y2="129.2221"/><line class="cls-5" x1="280.9783" y1="134.6302" x2="25.8602" y2="134.6302"/><line class="cls-5" x1="280.9783" y1="123.814" x2="25.8602" y2="123.814"/><line class="cls-4" x1="280.9783" y1="118.4059" x2="25.8602" y2="118.4059"/><line class="cls-4" x1="280.9783" y1="107.5897" x2="25.8602" y2="107.5897"/><line class="cls-5" x1="280.9783" y1="112.9978" x2="25.8602" y2="112.9978"/><line class="cls-5" x1="280.9783" y1="102.1816" x2="25.8602" y2="102.1816"/><line class="cls-4" x1="282.4783" y1="96.7735" x2="27.3602" y2="96.7735"/><rect class="cls-1" x="0.5" y="1.4764" width="283.4646" height="283.4646"/><text class="cls-7" transform="translate(1.0994 20.1956)">S</text><text class="cls-7" transform="translate(267.9386 279.4692)">p</text><polyline class="cls-8" points="50.889 224.358 99.701 208.608 148.514 202.108 197.327 205.608 246.139 219.355"/><polyline class="cls-9" points="246.139 219.355 197.327 211.358 148.514 204.858 99.702 211.358 50.889 220.858"/><polyline class="cls-9" points="50.889 212.858 99.702 188.608 148.514 171.858 197.327 177.608 246.139 193.608"/><polyline class="cls-9" points="50.934 218.671 99.724 201.265 148.514 197.108 197.389 197.108 246.139 201.358"/><rect class="cls-10" x="10.4021" y="299.7672" width="17.0079" height="17.0079"/><text class="cls-3" transform="translate(29.9194 315.8049)">2.1</text><rect class="cls-11" x="78.3335" y="299.7672" width="17.0079" height="17.0079"/><text class="cls-3" transform="translate(97.8508 315.8049)">2.2</text><rect class="cls-12" x="146.2643" y="299.7672" width="17.0079" height="17.0079"/><text class="cls-3" transform="translate(165.7817 315.8049)">2.3<tspan class="cls-13" x="29.3901" y="0">S</tspan></text><rect class="cls-14" x="214.195" y="299.7672" width="17.0079" height="17.0079"/><text class="cls-3" transform="translate(233.7123 315.8049)">2.3<tspan class="cls-13" x="29.3901" y="0">A</tspan></text><rect class="cls-14" x="10.4021" y="326.934" width="17.0079" height="17.0079"/><text class="cls-3" transform="translate(29.9194 342.9718)">8.88</text><rect class="cls-15" x="78.3335" y="326.934" width="17.0079" height="17.0079"/><text class="cls-3" transform="translate(97.8508 342.9718)">8.88</text><rect class="cls-16" x="146.2643" y="326.934" width="17.0079" height="17.0079"/><text class="cls-3" transform="translate(165.7817 342.9718)">8.88</text><rect class="cls-17" x="214.195" y="326.934" width="17.0079" height="17.0079"/><text class="cls-3" transform="translate(233.7123 342.9718)">8.88</text><rect class="cls-18" x="10.4021" y="354.1005" width="17.0079" height="17.0079"/><text class="cls-3" transform="translate(29.9194 370.1383)">8.88</text><rect class="cls-19" x="78.3335" y="354.1005" width="17.0079" height="17.0079"/><text class="cls-3" transform="translate(97.8508 370.1383)">8.88</text><rect class="cls-20" x="146.2643" y="354.1005" width="17.0079" height="17.0079"/><text class="cls-3" transform="translate(165.7817 370.1383)">8.88</text><rect class="cls-21" x="214.195" y="354.1005" width="17.0079" height="17.0079"/><text class="cls-3" transform="translate(233.7123 370.1383)">8.88</text></svg>